#N canvas 2020 96 1619 871 12;
#X obj 819 685 netsend;
#X msg 1322 215 disconnect;
#X obj 1230 214 list trim;
#X obj 1230 97 bng 15 250 50 0 empty empty empty 17 7 0 10 -262144
-1 -1;
#X obj 1230 159 list store connect \$1 \$2;
#X text 1416 161 connect ip port;
#X text 143 146 ID;
#X obj 846 201 bng 15 250 50 0 empty empty empty 17 7 0 10 -262144
-1 -1;
#N canvas 82 394 1408 483 introduction 0;
#X obj 564 410 outlet;
#X obj 564 274 list trim;
#X obj 566 75 inlet;
#X text 674 192 action introduction;
#X obj 564 213 list store send introduction \$0|\$3 I|AM|IN;
#X connect 1 0 0 0;
#X connect 2 0 4 0;
#X connect 4 0 1 0;
#X restore 893 287 pd introduction;
#X text 1005 287 action introduction;
#X text 1203 95 1;
#X text 876 195 2;
#X obj 1310 502 route \$0|\$3;
#X obj 1415 622 route all wav;
#X obj 1312 542 route introduction globrequest;
#X obj 1307 768 list append, f 36;
#X obj 510 633 list trim;
#X obj 404 319 openpanel;
#X obj 437 554 list append, f 36;
#X obj 438 441 t b s, f 36;
#X obj 625 170 inlet;
#X obj 347 286 bng 15 250 50 0 empty empty empty 17 7 0 10 -262144
-1 -1;
#X text 80 40 glob_request;
#X text 83 76 client sock send messages to server;
#X text 87 102 message format;
#X text 85 129 action \$0|\$3 message1 message2 message3 etc.;
#X text 475 52 arguments:;
#X obj 1003 63 inlet;
#X obj 1339 735 list append, f 36;
#X obj 404 254 t b;
#X obj 1039 107 t b;
#X obj 1065 65 inlet;
#X obj 1101 109 t b;
#X obj 964 839 outlet;
#X obj 385 500 list store send globrequest \$0|\$3 \$4, f 39;
#X text 474 69 1 server address 2 number port 3 uid (your choice) 4
type es. wav aiff (for all kind of file type all);
#X text 481 322 pick a file to get the list of file;
#X obj 865 746 route \$0|\$3;
#X connect 0 1 12 0;
#X connect 0 1 37 0;
#X connect 1 0 0 0;
#X connect 2 0 0 0;
#X connect 3 0 4 0;
#X connect 4 0 2 0;
#X connect 7 0 8 0;
#X connect 8 0 0 0;
#X connect 12 0 14 0;
#X connect 13 0 15 0;
#X connect 13 1 28 0;
#X connect 14 1 13 0;
#X connect 16 0 0 0;
#X connect 17 0 19 0;
#X connect 18 0 16 0;
#X connect 19 0 34 0;
#X connect 19 1 18 1;
#X connect 20 0 29 0;
#X connect 21 0 17 0;
#X connect 27 0 30 0;
#X connect 29 0 17 0;
#X connect 30 0 8 0;
#X connect 31 0 32 0;
#X connect 32 0 4 0;
#X connect 34 0 18 0;
#X connect 37 0 33 0;
