#N canvas 2147 213 1444 913 12;
#X obj 835 143 bng 15 250 50 0 empty empty empty 17 7 0 10 -262144
-1 -1;
#X obj 763 617 route all wav;
#X obj 660 537 route introduction globrequest;
#X obj 655 763 list append, f 36;
#X obj 795 726 list append, f 36;
#X obj 481 810 print back introducction;
#X obj 1048 293 bng 15 250 50 0 empty empty empty 17 7 0 10 -262144
-1 -1;
#X text 1032 292 1;
#X text 1071 288 first connect;
#X obj 964 227 bng 15 250 50 0 empty empty empty 17 7 0 10 -262144
-1 -1;
#X text 986 224 2;
#X text 1007 222 introduce yourself;
#X text 1083 370 camback all type of files;
#X obj 99 165 bng 15 250 50 0 empty empty empty 17 7 0 10 -262144 -1
-1;
#X obj 367 302 bng 15 250 50 0 empty empty empty 17 7 0 10 -262144
-1 -1;
#X text 351 301 1;
#X text 390 297 first connect;
#X obj 283 236 bng 15 250 50 0 empty empty empty 17 7 0 10 -262144
-1 -1;
#X text 305 233 2;
#X text 326 231 introduce yourself;
#X obj 133 381 glob_request localhost 4000 ciro wav;
#X text 402 379 camback all wav files;
#X text 79 167 3;
#X obj 679 808 print back list;
#X text 818 142 3;
#X text 859 127 choose any file. This way you will get the list of
all the files in that folder;
#X text 129 151 choose a wav files. This way you will get the list
of all the wav files in that folder;
#X text 475 50 more info: https://github.com/marrongiallo/glob-strip
;
#X text 358 38 glob_request;
#X text 473 28 communicates with glob-strip.tcl a gui socket server
;
#X obj 813 372 glob_request localhost 4000 mario all;
#X connect 0 0 30 0;
#X connect 1 0 3 0;
#X connect 1 1 4 0;
#X connect 2 0 5 0;
#X connect 2 1 1 0;
#X connect 3 0 23 0;
#X connect 4 0 23 0;
#X connect 6 0 30 2;
#X connect 9 0 30 1;
#X connect 13 0 20 0;
#X connect 14 0 20 2;
#X connect 17 0 20 1;
#X connect 20 0 2 0;
#X connect 30 0 2 0;
