#N canvas 2002 167 1619 873 12;
#X obj 360 434 netsend;
#X msg 458 126 disconnect;
#X obj 352 118 list trim;
#X obj 331 55 bng 15 250 50 0 empty empty empty 17 7 0 10 -262144 -1
-1;
#X obj 352 81 list store connect \$1 \$2;
#X text 417 50 connect ip port;
#X obj 55 394 list trim;
#X obj 56 166 openpanel;
#X obj 55 353 list append, f 36;
#X obj 56 240 t b s, f 36;
#X obj 364 27 loadbang;
#X obj 58 31 inlet;
#X obj 55 298 list store send globfilepath wav;
#X msg 780 584 clear;
#X obj 803 150 list length;
#X obj 821 272 until;
#X obj 819 235 float 10;
#X obj 933 308 + 1;
#X obj 868 315 float 0;
#X obj 805 192 t b f b, f 23;
#X msg 965 241 0;
#X obj 897 143 print n items;
#X obj 727 464 list store;
#X msg 807 404 get \$1 1;
#X obj 667 21 route wavlist list;
#X obj 671 74 list prepend;
#X obj 829 554 text define \$0-playlist;
#X obj 826 520 text set \$0-playlist;
#X obj 844 360 t f f;
#X obj 671 114 t list list list;
#X obj 571 679 list store;
#X msg 569 635 get \$1 1;
#X obj 549 21 inlet;
#X obj 1241 30 inlet;
#X msg 1064 524 click;
#X obj 1054 457 t b;
#X obj 56 101 t b b;
#X obj 571 747 outlet;
#X obj 1028 743 outlet;
#X connect 0 1 24 0;
#X connect 1 0 0 0;
#X connect 2 0 0 0;
#X connect 3 0 4 0;
#X connect 4 0 2 0;
#X connect 6 0 0 0;
#X connect 7 0 9 0;
#X connect 8 0 6 0;
#X connect 9 0 12 0;
#X connect 9 1 8 1;
#X connect 10 0 4 0;
#X connect 11 0 36 0;
#X connect 12 0 8 0;
#X connect 13 0 26 0;
#X connect 14 0 19 0;
#X connect 14 0 21 0;
#X connect 14 0 38 0;
#X connect 15 0 18 0;
#X connect 16 0 15 0;
#X connect 17 0 18 1;
#X connect 18 0 17 0;
#X connect 18 0 28 0;
#X connect 19 0 16 0;
#X connect 19 1 16 1;
#X connect 19 2 20 0;
#X connect 20 0 18 1;
#X connect 22 0 27 0;
#X connect 23 0 22 0;
#X connect 24 0 25 0;
#X connect 25 0 29 0;
#X connect 28 0 23 0;
#X connect 28 1 27 1;
#X connect 29 0 14 0;
#X connect 29 1 22 1;
#X connect 29 2 30 1;
#X connect 30 0 37 0;
#X connect 31 0 30 0;
#X connect 32 0 31 0;
#X connect 33 0 35 0;
#X connect 34 0 26 0;
#X connect 35 0 34 0;
#X connect 36 0 7 0;
#X connect 36 1 13 0;
