#N canvas 2318 321 1110 656 12;
#X obj 117 134 bng 15 250 50 0 empty empty empty 17 7 0 10 -262144
-1 -1;
#N canvas 489 285 842 602 README 0;
#X text 65 219 bang in the first inlet \, navigate to the folder you
are interested in \, and click on any of the files;
#X text 64 134 two arguments: ip_address port_number;
#X text 68 191 first inlet;
#X text 63 280 second inlet;
#X text 65 374 third inlet;
#X text 67 472 outlet;
#X text 68 499 absolute path of the file you are choise;
#X text 64 304 index starting from zero \, to output the third file
put number 2;
#X text 66 398 bang to open a text window with the list (not interaction
only show the list);
#X text 68 24 xglob-plugin v0.1 marrongiallo.github.io;
#X text 64 59 THIS ABSTRACTION WORK ONLY IF YOU HAVE INSTALLED THE
PLUGIN (xglob-plugin.tcl);
#X text 361 135 if you change these two parameters you will also have
to change them in the plugin file: xglob-plugin.tcl;
#X restore 858 225 pd README;
#X obj 204 201 nbx 5 14 0 1e+37 0 0 empty empty empty 0 -8 0 10 -262144
-1 -1 0 256;
#X obj 303 283 bng 15 250 50 0 empty empty empty 17 7 0 10 -262144
-1 -1;
#X obj 116 435 print item1;
#X obj 353 446 print length2;
#X obj 117 331 xglob_request localhost 4000;
#X obj 639 456 xglob_request localhost 4000;
#X text 140 128 go to the folder where you have your audio files and
choose any file. This way you will get the list of all the audio files
in that folder;
#X text 280 199 select a audio file 0 (zero) is the first file in the
list;
#X text 337 280 from here you can look at the list. It is not interactive:
you cannot modify the list and clicking on the list nothing happens
\, it only serves to have a look at the list;
#X text 635 418 you can run multiple instances of lists at the same
time using the same port number;
#X connect 0 0 6 0;
#X connect 2 0 6 1;
#X connect 3 0 6 2;
#X connect 6 0 4 0;
#X connect 6 1 5 0;
